<?xml version="1.0" encoding="UTF-8" standalone="no"?>
<!DOCTYPE svg PUBLIC "-//W3C//DTD SVG 1.1//EN"
 "http://www.w3.org/Graphics/SVG/1.1/DTD/svg11.dtd">
<!-- Generated by graphviz version 2.43.0 (0)
 -->
<!-- Title: ElsStateMachine — stop trigger: any state → idle Pages: 1 -->
<svg width="1142pt" height="924pt"
 viewBox="0.00 0.00 1142.24 923.60" xmlns="http://www.w3.org/2000/svg" xmlns:xlink="http://www.w3.org/1999/xlink">
<g id="graph0" class="graph" transform="scale(1 1) rotate(0) translate(4 919.6)">
<title>ElsStateMachine — stop trigger: any state → idle</title>
<polygon fill="white" stroke="transparent" points="-4,4 -4,-919.6 1138.24,-919.6 1138.24,4 -4,4"/>
<text text-anchor="middle" x="567.12" y="-7.8" font-family="Times,serif" font-size="14.00">ElsStateMachine — stop trigger: any state → idle</text>
<g id="clust1" class="cluster">
<title>cluster_returning</title>
<polygon fill="none" stroke="black" points="217.24,-31 217.24,-417.6 399.24,-417.6 399.24,-31 217.24,-31"/>
<text text-anchor="start" x="273.74" y="-402.4" font-family="Times,serif" font-size="14.00">returning</text>
</g>
<g id="clust2" class="cluster">
<title>cluster_returning_root</title>
<polygon fill="none" stroke="transparent" points="299.24,-363.4 299.24,-386.6 323.24,-386.6 323.24,-363.4 299.24,-363.4"/>
</g>
<!-- idle -->
<g id="node1" class="node">
<title>idle</title>
<path fill="darksalmon" stroke="red" d="M338.24,-911.6C338.24,-911.6 308.24,-911.6 308.24,-911.6 302.24,-911.6 296.24,-905.6 296.24,-899.6 296.24,-899.6 296.24,-887.6 296.24,-887.6 296.24,-881.6 302.24,-875.6 308.24,-875.6 308.24,-875.6 338.24,-875.6 338.24,-875.6 344.24,-875.6 350.24,-881.6 350.24,-887.6 350.24,-887.6 350.24,-899.6 350.24,-899.6 350.24,-905.6 344.24,-911.6 338.24,-911.6"/>
<path fill="none" stroke="red" d="M342.24,-915.6C342.24,-915.6 304.24,-915.6 304.24,-915.6 298.24,-915.6 292.24,-909.6 292.24,-903.6 292.24,-903.6 292.24,-883.6 292.24,-883.6 292.24,-877.6 298.24,-871.6 304.24,-871.6 304.24,-871.6 342.24,-871.6 342.24,-871.6 348.24,-871.6 354.24,-877.6 354.24,-883.6 354.24,-883.6 354.24,-903.6 354.24,-903.6 354.24,-909.6 348.24,-915.6 342.24,-915.6"/>
<text text-anchor="start" x="304.24" y="-889.9" font-family="Times,serif" font-size="14.00">idle</text>
</g>
<!-- set_start_z -->
<g id="node2" class="node">
<title>set_start_z</title>
<path fill="white" stroke="black" d="M590.24,-824.6C590.24,-824.6 520.24,-824.6 520.24,-824.6 514.24,-824.6 508.24,-818.6 508.24,-812.6 508.24,-812.6 508.24,-800.6 508.24,-800.6 508.24,-794.6 514.24,-788.6 520.24,-788.6 520.24,-788.6 590.24,-788.6 590.24,-788.6 596.24,-788.6 602.24,-794.6 602.24,-800.6 602.24,-800.6 602.24,-812.6 602.24,-812.6 602.24,-818.6 596.24,-824.6 590.24,-824.6"/>
<text text-anchor="start" x="516.24" y="-802.9" font-family="Times,serif" font-size="14.00">set_start_z</text>
</g>
<!-- idle&#45;&gt;set_start_z -->
<g id="edge2" class="edge">
<title>idle&#45;&gt;set_start_z</title>
<path fill="none" stroke="black" d="M354.52,-881.14C391.47,-867.6 453.64,-844.82 499.01,-828.2"/>
<polygon fill="black" stroke="black" points="500.24,-831.48 508.43,-824.75 497.83,-824.9 500.24,-831.48"/>
<text text-anchor="middle" x="535.24" y="-844.4" font-family="Times,serif" font-size="14.00">start [retract|wizard]</text>
</g>
<!-- set_stop_z -->
<g id="node3" class="node">
<title>set_stop_z</title>
<path fill="white" stroke="black" d="M356.24,-741.6C356.24,-741.6 290.24,-741.6 290.24,-741.6 284.24,-741.6 278.24,-735.6 278.24,-729.6 278.24,-729.6 278.24,-717.6 278.24,-717.6 278.24,-711.6 284.24,-705.6 290.24,-705.6 290.24,-705.6 356.24,-705.6 356.24,-705.6 362.24,-705.6 368.24,-711.6 368.24,-717.6 368.24,-717.6 368.24,-729.6 368.24,-729.6 368.24,-735.6 362.24,-741.6 356.24,-741.6"/>
<text text-anchor="start" x="286.24" y="-719.9" font-family="Times,serif" font-size="14.00">set_stop_z</text>
</g>
<!-- idle&#45;&gt;set_stop_z -->
<g id="edge1" class="edge">
<title>idle&#45;&gt;set_stop_z</title>
<path fill="none" stroke="black" d="M320.11,-871.52C318.28,-858.12 316.16,-840.38 315.24,-824.6 314.3,-808.63 314.24,-804.57 315.24,-788.6 315.99,-776.49 317.54,-763.16 319.07,-751.82"/>
<polygon fill="black" stroke="black" points="322.58,-752.05 320.52,-741.66 315.65,-751.07 322.58,-752.05"/>
<text text-anchor="middle" x="405.74" y="-802.9" font-family="Times,serif" font-size="14.00">start [!retract &amp; !wizard]</text>
</g>
<!-- set_start_z&#45;&gt;set_stop_z -->
<g id="edge3" class="edge">
<title>set_start_z&#45;&gt;set_stop_z</title>
<path fill="none" stroke="black" d="M508.01,-789.11C470.31,-775.95 417.45,-757.49 377.92,-743.69"/>
<polygon fill="black" stroke="black" points="379.02,-740.37 368.43,-740.38 376.71,-746.98 379.02,-740.37"/>
<text text-anchor="middle" x="481.24" y="-761.4" font-family="Times,serif" font-size="14.00">action</text>
</g>
<!-- returning -->
<g id="node4" class="node">
<title>returning</title>
<ellipse fill="black" stroke="black" cx="311.24" cy="-375" rx="3.6" ry="3.6"/>
</g>
<!-- set_stop_z&#45;&gt;returning -->
<g id="edge5" class="edge">
<title>set_stop_z&#45;&gt;returning</title>
<path fill="none" stroke="black" d="M278,-710.92C245.08,-699.38 206.24,-678.04 206.24,-641.6 206.24,-641.6 206.24,-641.6 206.24,-473.6 206.24,-423.74 270.55,-392.14 298.51,-380.76"/>
<polygon fill="black" stroke="black" points="300.12,-383.89 308.21,-377.04 297.62,-377.36 300.12,-383.89"/>
<text text-anchor="middle" x="139" y="-714.72" font-family="Times,serif" font-size="14.00">action [retract &amp; !wizard &amp; stop_valid]</text>
</g>
<!-- set_major_diameter -->
<g id="node9" class="node">
<title>set_major_diameter</title>
<path fill="white" stroke="black" d="M390.24,-658.6C390.24,-658.6 256.24,-658.6 256.24,-658.6 250.24,-658.6 244.24,-652.6 244.24,-646.6 244.24,-646.6 244.24,-634.6 244.24,-634.6 244.24,-628.6 250.24,-622.6 256.24,-622.6 256.24,-622.6 390.24,-622.6 390.24,-622.6 396.24,-622.6 402.24,-628.6 402.24,-634.6 402.24,-634.6 402.24,-646.6 402.24,-646.6 402.24,-652.6 396.24,-658.6 390.24,-658.6"/>
<text text-anchor="start" x="252.24" y="-636.9" font-family="Times,serif" font-size="14.00">set_major_diameter</text>
</g>
<!-- set_stop_z&#45;&gt;set_major_diameter -->
<g id="edge6" class="edge">
<title>set_stop_z&#45;&gt;set_major_diameter</title>
<path fill="none" stroke="black" d="M323.24,-705.42C323.24,-694.79 323.24,-680.91 323.24,-668.8"/>
<polygon fill="black" stroke="black" points="326.74,-668.75 323.24,-658.75 319.74,-668.75 326.74,-668.75"/>
<text text-anchor="middle" x="423.74" y="-678.4" font-family="Times,serif" font-size="14.00">action [wizard &amp; stop_valid]</text>
</g>
<!-- cut -->
<g id="node12" class="node">
<title>cut</title>
<path fill="white" stroke="black" d="M621.24,-393C621.24,-393 591.24,-393 591.24,-393 585.24,-393 579.24,-387 579.24,-381 579.24,-381 579.24,-369 579.24,-369 579.24,-363 585.24,-357 591.24,-357 591.24,-357 621.24,-357 621.24,-357 627.24,-357 633.24,-363 633.24,-369 633.24,-369 633.24,-381 633.24,-381 633.24,-387 627.24,-393 621.24,-393"/>
<text text-anchor="start" x="587.24" y="-371.3" font-family="Times,serif" font-size="14.00">cut</text>
</g>
<!-- set_stop_z&#45;&gt;cut -->
<g id="edge4" class="edge">
<title>set_stop_z&#45;&gt;cut</title>
<path fill="none" stroke="black" d="M368.61,-719.8C489.51,-711.72 810.24,-686.12 810.24,-641.6 810.24,-641.6 810.24,-641.6 810.24,-473.6 810.24,-450.97 809.87,-440.94 793.24,-425.6 752.03,-387.61 685.1,-378.07 643.48,-376.03"/>
<polygon fill="black" stroke="black" points="643.6,-372.54 633.47,-375.67 643.34,-379.53 643.6,-372.54"/>
<text text-anchor="middle" x="945.74" y="-553.9" font-family="Times,serif" font-size="14.00">action [!retract &amp; !wizard &amp; stop_set]</text>
</g>
<!-- returning.waiting -->
<g id="node5" class="node">
<title>returning.waiting</title>
<path fill="white" stroke="black" d="M296.24,-324C296.24,-324 250.24,-324 250.24,-324 244.24,-324 238.24,-318 238.24,-312 238.24,-312 238.24,-300 238.24,-300 238.24,-294 244.24,-288 250.24,-288 250.24,-288 296.24,-288 296.24,-288 302.24,-288 308.24,-294 308.24,-300 308.24,-300 308.24,-312 308.24,-312 308.24,-318 302.24,-324 296.24,-324"/>
<text text-anchor="start" x="246.24" y="-302.3" font-family="Times,serif" font-size="14.00">waiting</text>
</g>
<!-- returning&#45;&gt;returning.waiting -->
<g id="edge19" class="edge">
<title>returning&#45;&gt;returning.waiting</title>
<path fill="none" stroke="black" d="M309.79,-371.46C306.2,-365.12 296.53,-348.08 288.04,-333.11"/>
<polygon fill="black" stroke="black" points="290.95,-331.14 282.97,-324.17 284.86,-334.59 290.95,-331.14"/>
</g>
<!-- returning.retracting -->
<g id="node6" class="node">
<title>returning.retracting</title>
<path fill="white" stroke="black" d="M301.74,-241C301.74,-241 236.74,-241 236.74,-241 230.74,-241 224.74,-235 224.74,-229 224.74,-229 224.74,-217 224.74,-217 224.74,-211 230.74,-205 236.74,-205 236.74,-205 301.74,-205 301.74,-205 307.74,-205 313.74,-211 313.74,-217 313.74,-217 313.74,-229 313.74,-229 313.74,-235 307.74,-241 301.74,-241"/>
<text text-anchor="start" x="232.74" y="-219.3" font-family="Times,serif" font-size="14.00">retracting</text>
</g>
<!-- returning.waiting&#45;&gt;returning.retracting -->
<g id="edge10" class="edge">
<title>returning.waiting&#45;&gt;returning.retracting</title>
<path fill="none" stroke="black" d="M257.78,-287.99C254.29,-283.16 251.08,-277.66 249.24,-272 246.89,-264.8 248.23,-257.16 251.09,-250.15"/>
<polygon fill="black" stroke="black" points="254.3,-251.57 255.73,-241.08 248.06,-248.39 254.3,-251.57"/>
<text text-anchor="middle" x="319.74" y="-260.8" font-family="Times,serif" font-size="14.00">action [x_retracted]</text>
</g>
<!-- returning.preloading -->
<g id="node7" class="node">
<title>returning.preloading</title>
<path fill="white" stroke="black" d="M305.74,-158C305.74,-158 236.74,-158 236.74,-158 230.74,-158 224.74,-152 224.74,-146 224.74,-146 224.74,-134 224.74,-134 224.74,-128 230.74,-122 236.74,-122 236.74,-122 305.74,-122 305.74,-122 311.74,-122 317.74,-128 317.74,-134 317.74,-134 317.74,-146 317.74,-146 317.74,-152 311.74,-158 305.74,-158"/>
<text text-anchor="start" x="232.74" y="-136.3" font-family="Times,serif" font-size="14.00">preloading</text>
</g>
<!-- returning.retracting&#45;&gt;returning.preloading -->
<g id="edge15" class="edge">
<title>returning.retracting&#45;&gt;returning.preloading</title>
<path fill="none" stroke="black" d="M269.66,-204.82C269.92,-194.19 270.26,-180.31 270.56,-168.2"/>
<polygon fill="black" stroke="black" points="274.06,-168.24 270.81,-158.15 267.07,-168.06 274.06,-168.24"/>
<text text-anchor="middle" x="331.24" y="-177.8" font-family="Times,serif" font-size="14.00">motion_complete</text>
</g>
<!-- returning.adjusting -->
<g id="node8" class="node">
<title>returning.adjusting</title>
<path fill="white" stroke="black" d="M378.74,-75C378.74,-75 319.74,-75 319.74,-75 313.74,-75 307.74,-69 307.74,-63 307.74,-63 307.74,-51 307.74,-51 307.74,-45 313.74,-39 319.74,-39 319.74,-39 378.74,-39 378.74,-39 384.74,-39 390.74,-45 390.74,-51 390.74,-51 390.74,-63 390.74,-63 390.74,-69 384.74,-75 378.74,-75"/>
<text text-anchor="start" x="315.74" y="-53.3" font-family="Times,serif" font-size="14.00">adjusting</text>
</g>
<!-- returning.preloading&#45;&gt;returning.adjusting -->
<g id="edge16" class="edge">
<title>returning.preloading&#45;&gt;returning.adjusting</title>
<path fill="none" stroke="black" d="M270.75,-121.91C271.3,-111.98 273.52,-99.74 280.24,-91 285.13,-84.63 291.56,-79.43 298.53,-75.2"/>
<polygon fill="black" stroke="black" points="300.41,-78.16 307.57,-70.35 297.1,-71.99 300.41,-78.16"/>
<text text-anchor="middle" x="341.24" y="-94.8" font-family="Times,serif" font-size="14.00">motion_complete</text>
</g>
<!-- returning.adjusting&#45;&gt;cut -->
<g id="edge18" class="edge">
<title>returning.adjusting&#45;&gt;cut</title>
<path fill="none" stroke="black" d="M390.91,-58.26C488.81,-60 725.24,-71.22 725.24,-139 725.24,-307 725.24,-307 725.24,-307 725.24,-345.19 678.11,-361.85 643.17,-368.95"/>
<polygon fill="black" stroke="black" points="642.44,-365.53 633.24,-370.79 643.71,-372.41 642.44,-365.53"/>
<text text-anchor="middle" x="786.24" y="-219.3" font-family="Times,serif" font-size="14.00">motion_complete</text>
</g>
<!-- depth_reached -->
<g id="node13" class="node">
<title>depth_reached</title>
<path fill="white" stroke="black" d="M513.24,-492.6C513.24,-492.6 415.24,-492.6 415.24,-492.6 409.24,-492.6 403.24,-486.6 403.24,-480.6 403.24,-480.6 403.24,-468.6 403.24,-468.6 403.24,-462.6 409.24,-456.6 415.24,-456.6 415.24,-456.6 513.24,-456.6 513.24,-456.6 519.24,-456.6 525.24,-462.6 525.24,-468.6 525.24,-468.6 525.24,-480.6 525.24,-480.6 525.24,-486.6 519.24,-492.6 513.24,-492.6"/>
<text text-anchor="start" x="411.24" y="-470.9" font-family="Times,serif" font-size="14.00">depth_reached</text>
</g>
<!-- returning.adjusting&#45;&gt;depth_reached -->
<g id="edge17" class="edge">
<title>returning.adjusting&#45;&gt;depth_reached</title>
<path fill="none" stroke="black" d="M385.77,-75.02C392.59,-79.47 399.16,-84.79 404.24,-91 418.56,-108.52 421.24,-116.37 421.24,-139 421.24,-376 421.24,-376 421.24,-376 421.24,-401.94 434.11,-428.71 445.77,-447.64"/>
<polygon fill="black" stroke="black" points="442.97,-449.76 451.33,-456.27 448.85,-445.97 442.97,-449.76"/>
<text text-anchor="middle" x="564.24" y="-260.8" font-family="Times,serif" font-size="14.00">motion_complete [wizard &amp; final_depth]</text>
</g>
<!-- set_minor_diameter -->
<g id="node10" class="node">
<title>set_minor_diameter</title>
<path fill="white" stroke="black" d="M390.24,-575.6C390.24,-575.6 256.24,-575.6 256.24,-575.6 250.24,-575.6 244.24,-569.6 244.24,-563.6 244.24,-563.6 244.24,-551.6 244.24,-551.6 244.24,-545.6 250.24,-539.6 256.24,-539.6 256.24,-539.6 390.24,-539.6 390.24,-539.6 396.24,-539.6 402.24,-545.6 402.24,-551.6 402.24,-551.6 402.24,-563.6 402.24,-563.6 402.24,-569.6 396.24,-575.6 390.24,-575.6"/>
<text text-anchor="start" x="252.24" y="-553.9" font-family="Times,serif" font-size="14.00">set_minor_diameter</text>
</g>
<!-- set_major_diameter&#45;&gt;set_minor_diameter -->
<g id="edge7" class="edge">
<title>set_major_diameter&#45;&gt;set_minor_diameter</title>
<path fill="none" stroke="black" d="M323.24,-622.42C323.24,-611.79 323.24,-597.91 323.24,-585.8"/>
<polygon fill="black" stroke="black" points="326.74,-585.75 323.24,-575.75 319.74,-585.75 326.74,-585.75"/>
<text text-anchor="middle" x="345.24" y="-595.4" font-family="Times,serif" font-size="14.00">action</text>
</g>
<!-- engage_half_nut -->
<g id="node11" class="node">
<title>engage_half_nut</title>
<path fill="white" stroke="black" d="M365.74,-492.6C365.74,-492.6 256.74,-492.6 256.74,-492.6 250.74,-492.6 244.74,-486.6 244.74,-480.6 244.74,-480.6 244.74,-468.6 244.74,-468.6 244.74,-462.6 250.74,-456.6 256.74,-456.6 256.74,-456.6 365.74,-456.6 365.74,-456.6 371.74,-456.6 377.74,-462.6 377.74,-468.6 377.74,-468.6 377.74,-480.6 377.74,-480.6 377.74,-486.6 371.74,-492.6 365.74,-492.6"/>
<text text-anchor="start" x="252.74" y="-470.9" font-family="Times,serif" font-size="14.00">engage_half_nut</text>
</g>
<!-- set_minor_diameter&#45;&gt;engage_half_nut -->
<g id="edge8" class="edge">
<title>set_minor_diameter&#45;&gt;engage_half_nut</title>
<path fill="none" stroke="black" d="M320.69,-539.42C319.12,-528.79 317.06,-514.91 315.27,-502.8"/>
<polygon fill="black" stroke="black" points="318.7,-502.13 313.78,-492.75 311.78,-503.16 318.7,-502.13"/>
<text text-anchor="middle" x="340.24" y="-512.4" font-family="Times,serif" font-size="14.00">action</text>
</g>
<!-- engage_half_nut&#45;&gt;returning -->
<g id="edge9" class="edge">
<title>engage_half_nut&#45;&gt;returning</title>
<path fill="none" stroke="black" d="M311.24,-456.6C311.24,-437.28 311.24,-406.17 311.24,-388.79"/>
<polygon fill="black" stroke="black" points="314.74,-388.6 311.24,-378.6 307.74,-388.6 314.74,-388.6"/>
<text text-anchor="middle" x="289.24" y="-445.4" font-family="Times,serif" font-size="14.00">action</text>
</g>
<!-- cut&#45;&gt;returning -->
<g id="edge12" class="edge">
<title>cut&#45;&gt;returning</title>
<path fill="none" stroke="black" d="M579.21,-375C494.49,-375 409.77,-375 325.04,-375"/>
<polygon fill="black" stroke="black" points="324.98,-371.5 314.98,-375 324.98,-378.5 324.98,-371.5"/>
<text text-anchor="middle" x="462.71" y="-378.8" font-family="Times,serif" font-size="14.00">cut_done [retract] | retract_done</text>
</g>
<!-- cut&#45;&gt;cut -->
<g id="edge11" class="edge">
<title>cut&#45;&gt;cut</title>
<path fill="none" stroke="black" d="M633.26,-381.2C646.49,-382.02 658.24,-379.95 658.24,-375 658.24,-371.37 651.9,-369.29 643.3,-368.76"/>
<polygon fill="black" stroke="black" points="643.24,-365.26 633.26,-368.8 643.27,-372.26 643.24,-365.26"/>
<text text-anchor="middle" x="896.24" y="-371.3" font-family="Times,serif" font-size="14.00">action [start_valid &amp; spindle_fwd &amp; speed_ok] | cut_done [!retract]</text>
</g>
<!-- depth_reached&#45;&gt;returning -->
<g id="edge14" class="edge">
<title>depth_reached&#45;&gt;returning</title>
<path fill="none" stroke="black" d="M430.33,-456.56C421.08,-451.64 411.16,-446.11 402.24,-440.6 371.93,-421.88 338.22,-396.73 321.63,-384.04"/>
<polygon fill="black" stroke="black" points="323.74,-381.26 313.69,-377.92 319.47,-386.8 323.74,-381.26"/>
<text text-anchor="middle" x="384.83" y="-445.36" font-family="Times,serif" font-size="14.00">retract_done</text>
</g>
<!-- depth_reached&#45;&gt;cut -->
<g id="edge13" class="edge">
<title>depth_reached&#45;&gt;cut</title>
<path fill="none" stroke="black" d="M459.18,-456.58C457.31,-446.67 456.95,-434.43 463.24,-425.6 487.12,-392.03 535.38,-380.98 569.21,-377.45"/>
<polygon fill="black" stroke="black" points="569.54,-380.93 579.2,-376.58 568.93,-373.96 569.54,-380.93"/>
<text text-anchor="middle" x="627.24" y="-429.4" font-family="Times,serif" font-size="14.00">action [start_valid &amp; spindle_fwd &amp; speed_ok]</text>
</g>
</g>
</svg>
